<svg width="55" height="55" viewBox="0 0 55 55" fill="none" xmlns="http://www.w3.org/2000/svg">
<path d="M45.5469 14.3689C46.3345 14.8169 46.9885 15.4666 47.4416 16.2512C47.8948 17.0359 48.1307 17.9271 48.125 18.8331V35.5256C48.125 37.3796 47.1098 39.0892 45.4712 39.9898L30.0025 49.7752C29.2356 50.1962 28.3749 50.417 27.5 50.417C26.6251 50.417 25.7644 50.1962 24.9975 49.7752L9.52875 39.9898C8.72705 39.5517 8.05778 38.9062 7.59094 38.1209C7.1241 37.3355 6.87684 36.4392 6.875 35.5256V18.8308C6.875 16.9769 7.89021 15.2696 9.52875 14.3689L24.9975 5.24811C25.7871 4.81278 26.674 4.58447 27.5756 4.58447C28.4772 4.58447 29.3642 4.81278 30.1537 5.24811L45.6225 14.3689H45.5469Z" stroke="black" stroke-width="4" stroke-linecap="round" stroke-linejoin="round"/>
<path d="M22.916 36.6668V18.3335L32.0827 36.6668V18.3335" stroke="black" stroke-width="4" stroke-linecap="round" stroke-linejoin="round"/>
</svg>
